<svg xmlns="http://www.w3.org/2000/svg" role="img" aria-hidden="true" viewBox="0 0 16 16" data-encore-id="icon" class="Svg-sc-ytk21e-0 hOjEcl"><path d="M13.54 3.889a2.968 2.968 0 001.333-1.683 5.937 5.937 0 01-1.929.738 2.992 2.992 0 00-.996-.706 2.98 2.98 0 00-1.218-.254 2.92 2.92 0 00-2.143.889 2.929 2.929 0 00-.889 2.15c0 .212.027.442.08.691a8.475 8.475 0 01-3.484-.932A8.536 8.536 0 011.532 2.54a2.993 2.993 0 00-.413 1.523c0 .519.12 1 .361 1.445.24.445.57.805.988 1.08a2.873 2.873 0 01-1.373-.374v.04c0 .725.23 1.365.69 1.92a2.97 2.97 0 001.739 1.048 2.937 2.937 0 01-1.365.056 2.94 2.94 0 001.063 1.5 2.945 2.945 0 001.77.603 5.944 5.944 0 01-3.77 1.302c-.243 0-.484-.016-.722-.048A8.414 8.414 0 005.15 14c.905 0 1.763-.12 2.572-.361.81-.24 1.526-.57 2.147-.988a9.044 9.044 0 001.683-1.46c.5-.556.911-1.155 1.234-1.798a9.532 9.532 0 00.738-1.988 8.417 8.417 0 00.246-2.429 6.177 6.177 0 001.508-1.563c-.56.249-1.14.407-1.738.476z"></path></svg>