<?xml version="1.0" ?><!DOCTYPE svg  PUBLIC '-//W3C//DTD SVG 1.1//EN'  'http://www.w3.org/Graphics/SVG/1.1/DTD/svg11.dtd'><svg enable-background="new 0 0 70 70" height="70px" id="Icons" version="1.1" viewBox="0 0 70 70" width="70px" xml:space="preserve" xmlns="http://www.w3.org/2000/svg" xmlns:xlink="http://www.w3.org/1999/xlink"><g><path d="M43.481,26.519l-2.824,2.824C42.105,30.791,43,32.791,43,35c0,2.209-0.895,4.209-2.343,5.657l2.824,2.824   C45.654,41.308,47,38.308,47,35S45.654,28.692,43.481,26.519z"/><path d="M49.136,20.864l-2.822,2.822C49.209,26.582,51,30.582,51,35s-1.791,8.418-4.686,11.314l2.822,2.822   C52.757,45.514,55,40.514,55,35S52.757,24.486,49.136,20.864z"/><path d="M33,23.643v22.686l-9.342-9.351H21V33h2.659L33,23.643 M37,18h-4.018L22,29h-5v11.978h5L33.011,52H37V18L37,18z"/></g></svg>